<svg width="14" height="15" viewBox="0 0 14 15" fill="none" xmlns="http://www.w3.org/2000/svg">
<path d="M10.6964 9.64054C10.5752 9.51897 10.4313 9.42251 10.2728 9.35669C10.1143 9.29087 9.94432 9.25699 9.77269 9.25699C9.60106 9.25699 9.43112 9.29087 9.27261 9.35669C9.1141 9.42251 8.97014 9.51897 8.84899 9.64054L8.2187 10.2708C7.50904 9.82044 6.85154 9.29269 6.25828 8.69728C5.66287 8.10402 5.13512 7.44652 4.68473 6.73686L5.31502 6.10657C5.43659 5.98542 5.53305 5.84146 5.59887 5.68295C5.66469 5.52444 5.69857 5.3545 5.69857 5.18287C5.69857 5.01123 5.66469 4.84129 5.59887 4.68278C5.53305 4.52427 5.43659 4.38032 5.31502 4.25916L4.08487 3.03336C3.96543 2.91138 3.82268 2.81467 3.66512 2.74895C3.50756 2.68324 3.3384 2.64987 3.16768 2.65084C2.99576 2.65042 2.82545 2.684 2.66655 2.74964C2.50765 2.81529 2.3633 2.91171 2.24181 3.03336L1.65064 3.62018C1.36887 3.92314 1.15857 4.2854 1.0352 4.68032C0.911835 5.07524 0.878539 5.49279 0.93776 5.90227C1.07686 7.53233 2.14618 9.49275 3.79363 11.1445C5.44108 12.7963 7.42323 13.8613 9.05329 14.0178C9.17492 14.0243 9.2968 14.0243 9.41843 14.0178C9.76931 14.0325 10.1196 13.9771 10.4488 13.8546C10.778 13.7322 11.0794 13.5453 11.3354 13.3049L11.9222 12.7137C12.0438 12.5923 12.1403 12.4479 12.2059 12.289C12.2716 12.1301 12.3051 11.9598 12.3047 11.7879C12.3057 11.6172 12.2723 11.448 12.2066 11.2904C12.1409 11.1329 12.0442 10.9901 11.9222 10.8707L10.6964 9.64054ZM12.0656 2.88557C11.4615 2.27917 10.7434 1.79835 9.95258 1.47084C9.16177 1.14332 8.31395 0.97559 7.45801 0.977308C7.34272 0.977308 7.23216 1.0231 7.15064 1.10462C7.06912 1.18614 7.02332 1.29671 7.02332 1.41199C7.02332 1.52728 7.06912 1.63784 7.15064 1.71936C7.23216 1.80088 7.34272 1.84667 7.45801 1.84667C8.20413 1.84665 8.94287 1.99438 9.6316 2.28135C10.3203 2.56832 10.9454 2.98884 11.4708 3.51865C11.9961 4.04845 12.4114 4.67706 12.6925 5.36818C12.9737 6.05931 13.1152 6.79927 13.1089 7.54537C13.1089 7.66065 13.1547 7.77122 13.2362 7.85274C13.3177 7.93425 13.4283 7.98005 13.5436 7.98005C13.6589 7.98005 13.7694 7.93425 13.8509 7.85274C13.9325 7.77122 13.9783 7.66065 13.9783 7.54537C13.9866 6.68032 13.8216 5.82236 13.4932 5.02206C13.1647 4.22176 12.6793 3.49532 12.0656 2.88557Z" fill="#001844"/>
<path d="M10.4606 5.81097C10.732 6.08069 10.9467 6.40196 11.092 6.75588C11.2373 7.1098 11.3104 7.48922 11.307 7.87181C11.307 7.99862 11.3573 8.12024 11.447 8.20991C11.5367 8.29958 11.6583 8.34996 11.7851 8.34996C11.9119 8.34996 12.0335 8.29958 12.1232 8.20991C12.2129 8.12024 12.2633 7.99862 12.2633 7.87181C12.2696 7.36546 12.1753 6.8629 11.9859 6.39327C11.7965 5.92364 11.5158 5.49629 11.1599 5.13601C10.8041 4.77573 10.3803 4.48968 9.91302 4.29446C9.44578 4.09924 8.94443 3.99874 8.43805 3.99878C8.31124 3.99878 8.18962 4.04916 8.09995 4.13883C8.01028 4.2285 7.9599 4.35012 7.9599 4.47693C7.9599 4.60374 8.01028 4.72536 8.09995 4.81503C8.18962 4.90471 8.31124 4.95508 8.43805 4.95508C8.81487 4.95792 9.18744 5.03497 9.53448 5.18182C9.88152 5.32868 10.1962 5.54247 10.4606 5.81097Z" fill="#001844"/>
</svg>
