<svg version="1.2" xmlns="http://www.w3.org/2000/svg" viewBox="0 0 232 69" width="232" height="69">
	<title>Highshine-logo-1</title>
	<style>
		.s0 { fill: #ffffff } 
	</style>
	<path fill-rule="evenodd" class="s0" d="m54.5 5.6h-19.3v29.7c0 1.3-0.6 1.7-1.6 1.2-1.2-0.7-3-1.6-5.1-2.7-2.1-1.1-7.2-3.2-11.2-7.7-4-4.6-3.7-11.5-1.3-15 2.4-3.6 5.5-5.5 5.5-5.5h-19.8v59.6h19.2v-29.5c0-1.3 0.6-1.7 1.6-1.2 1.2 0.6 3 1.6 5.1 2.7 2.1 1.1 7.2 3.1 11.2 7.7 4 4.5 3.7 11.4 1.3 14.9-2.4 3.5-5.5 5.4-5.5 5.4h19.8z"/>
	<g>
		<path class="s0" d="m87.7 30.3h-3.8v-8.9h-9.6v8.9h-3.8v-20.4h3.8v8.8h9.6v-8.8h3.8z"/>
		<path class="s0" d="m95.8 11.6q0 0.5-0.1 0.9-0.2 0.4-0.5 0.7-0.3 0.3-0.7 0.4-0.4 0.2-0.9 0.2-0.5 0-0.9-0.2-0.4-0.1-0.7-0.4-0.2-0.3-0.4-0.7-0.2-0.4-0.2-0.9 0-0.4 0.2-0.9 0.2-0.4 0.4-0.7 0.3-0.3 0.7-0.4 0.5-0.2 0.9-0.2 0.5 0 0.9 0.2 0.4 0.1 0.7 0.4 0.3 0.3 0.5 0.7 0.1 0.4 0.1 0.9zm-0.5 4.2v14.5h-3.4v-14.5z"/>
		<path class="s0" d="m104.3 15.6q0.9 0 1.7 0.2 0.8 0.2 1.5 0.5h4.2v1.3q0 0.4-0.2 0.5-0.2 0.2-0.6 0.3l-1.3 0.2q0.2 0.4 0.2 0.8 0.1 0.4 0.1 0.9 0 1-0.4 1.9-0.4 0.9-1.2 1.5-0.7 0.6-1.8 0.9-1 0.4-2.2 0.4-0.8 0-1.6-0.2-0.7 0.4-0.7 0.9 0 0.5 0.4 0.7 0.4 0.2 1.1 0.3 0.6 0 1.5 0 0.8 0 1.7 0.1 0.8 0.1 1.7 0.3 0.8 0.1 1.5 0.5 0.6 0.4 1 1.1 0.4 0.6 0.4 1.6 0 1-0.4 1.9-0.5 0.9-1.4 1.6-0.9 0.7-2.2 1.2-1.3 0.4-3 0.4-1.6 0-2.8-0.3-1.2-0.3-2-0.9-0.8-0.5-1.2-1.2-0.4-0.7-0.4-1.4 0-1.1 0.6-1.7 0.6-0.7 1.7-1.1-0.5-0.3-0.8-0.8-0.4-0.5-0.4-1.3 0-0.3 0.2-0.7 0.1-0.3 0.3-0.7 0.2-0.3 0.6-0.6 0.3-0.3 0.8-0.5-1.1-0.6-1.7-1.6-0.6-1-0.6-2.3-0.1-1.1 0.4-2 0.4-0.8 1.2-1.5 0.7-0.6 1.8-0.9 1-0.3 2.3-0.3zm3.8 15.3q0-0.4-0.2-0.7-0.3-0.3-0.7-0.4-0.5-0.2-1-0.2-0.6-0.1-1.3-0.1h-1.3q-0.7 0-1.4-0.2-0.6 0.4-0.9 0.8-0.4 0.5-0.4 1 0 0.4 0.2 0.7 0.2 0.4 0.6 0.6 0.4 0.2 1.1 0.4 0.6 0.1 1.6 0.1 1 0 1.7-0.1 0.7-0.2 1.1-0.5 0.5-0.2 0.7-0.6 0.2-0.4 0.2-0.8zm-3.8-8.2q0.6 0 1.1-0.2 0.5-0.2 0.8-0.5 0.3-0.3 0.5-0.7 0.2-0.5 0.2-1 0-1-0.7-1.7-0.6-0.6-1.9-0.6-1.3 0-1.9 0.6-0.7 0.7-0.7 1.7 0 0.5 0.2 1 0.2 0.4 0.5 0.7 0.3 0.3 0.8 0.5 0.5 0.2 1.1 0.2z"/>
		<path class="s0" d="m113.9 30.3v-20.9l3.4-0.1v8.1q0.9-0.8 1.9-1.3 1-0.5 2.4-0.5 1.2 0 2.1 0.4 0.9 0.4 1.5 1.1 0.6 0.8 0.9 1.8 0.4 1 0.4 2.2v9.2h-3.5v-9.2q0-1.3-0.6-2.1-0.6-0.7-1.9-0.7-0.9 0-1.7 0.4-0.8 0.4-1.5 1.1v10.5h-3.4z"/>
		<path class="s0" d="m138.5 18.7q-0.2 0.2-0.3 0.3-0.2 0.1-0.4 0.1-0.3 0-0.6-0.2-0.2-0.1-0.6-0.3-0.4-0.2-0.9-0.3-0.5-0.2-1.1-0.2-1.1 0.1-1.7 0.5-0.5 0.4-0.6 1.1 0 0.5 0.4 0.8 0.3 0.3 0.8 0.6 0.4 0.2 1.1 0.4 0.6 0.2 1.3 0.4 0.6 0.2 1.3 0.5 0.6 0.3 1.1 0.8 0.5 0.4 0.8 1 0.3 0.6 0.3 1.5 0 1.1-0.4 1.9-0.3 0.9-1.1 1.6-0.7 0.6-1.8 1-1.1 0.3-2.5 0.3-0.7 0-1.4-0.1-0.7-0.1-1.4-0.4-0.7-0.2-1.2-0.5-0.6-0.4-1-0.7l0.8-1.4q0.2-0.2 0.4-0.3 0.2-0.2 0.5-0.2 0.3 0 0.6 0.2 0.3 0.2 0.7 0.4 0.4 0.2 0.9 0.4 0.5 0.2 1.3 0.2 0.6 0 1.1-0.2 0.4-0.1 0.7-0.4 0.3-0.2 0.4-0.5 0.1-0.3 0.1-0.7 0-0.5-0.3-0.8-0.3-0.3-0.8-0.6-0.5-0.2-1.1-0.4-0.6-0.2-1.3-0.4-0.7-0.2-1.3-0.6-0.7-0.3-1.2-0.7-0.5-0.5-0.8-1.2-0.3-0.6-0.3-1.6 0-0.9 0.4-1.7 0.3-0.8 1-1.4 0.7-0.6 1.7-1 1.1-0.3 2.4-0.3 1.5 0 2.7 0.5 1.3 0.5 2.1 1.3l-0.8 1.2z"/>
		<path class="s0" d="m142.2 30.3v-20.9l3.5-0.1v8.1q0.8-0.8 1.9-1.3 1-0.5 2.3-0.5 1.2 0 2.1 0.4 1 0.4 1.6 1.1 0.6 0.8 0.9 1.8 0.3 1 0.3 2.2v9.2h-3.5v-9.2q0-1.3-0.6-2.1-0.6-0.7-1.8-0.7-0.9 0-1.7 0.4-0.8 0.4-1.5 1.1v10.5h-3.5z"/>
		<path class="s0" d="m162.5 11.6q0 0.5-0.2 0.9-0.2 0.4-0.5 0.7-0.3 0.3-0.7 0.4-0.4 0.2-0.9 0.2-0.4 0-0.8-0.2-0.4-0.1-0.7-0.4-0.3-0.3-0.5-0.7-0.2-0.4-0.2-0.9 0-0.4 0.2-0.9 0.2-0.4 0.5-0.7 0.3-0.3 0.7-0.4 0.4-0.2 0.8-0.2 0.5 0 0.9 0.2 0.4 0.1 0.7 0.4 0.3 0.3 0.5 0.7 0.2 0.4 0.2 0.9zm-0.5 4.2v14.5h-3.5v-14.5z"/>
		<path class="s0" d="m165.9 30.3v-14.5h2.1q0.7 0 0.9 0.7l0.3 1.1q0.4-0.4 0.9-0.8 0.5-0.4 1-0.6 0.6-0.3 1.2-0.4 0.6-0.2 1.3-0.2 1.2 0 2.1 0.4 0.9 0.4 1.5 1.1 0.7 0.8 1 1.8 0.3 1 0.3 2.2v9.2h-3.5v-9.2q0-1.3-0.6-2.1-0.6-0.7-1.8-0.7-0.9 0-1.7 0.4-0.8 0.4-1.5 1.1v10.5h-3.5z"/>
		<path class="s0" d="m187.9 15.6q1.4 0 2.5 0.4 1.2 0.5 2 1.3 0.8 0.9 1.3 2.1 0.5 1.2 0.5 2.8 0 0.4-0.1 0.6 0 0.3-0.1 0.4-0.1 0.2-0.2 0.3-0.2 0-0.4 0h-9q0.2 2.3 1.2 3.3 1.1 1 2.8 1 0.8 0 1.5-0.2 0.6-0.2 1-0.4 0.5-0.2 0.8-0.4 0.4-0.2 0.7-0.3 0.2 0.1 0.4 0.1 0.1 0.1 0.2 0.3l1.1 1.2q-0.6 0.7-1.3 1.2-0.8 0.4-1.5 0.7-0.8 0.3-1.6 0.4-0.8 0.1-1.6 0.1-1.5 0-2.8-0.5-1.3-0.5-2.3-1.5-0.9-0.9-1.5-2.4-0.5-1.4-0.5-3.3 0-1.5 0.4-2.8 0.5-1.3 1.4-2.3 0.9-1 2.2-1.5 1.3-0.6 2.9-0.6zm0.1 2.5q-1.5 0-2.4 0.9-0.8 0.8-1.1 2.4h6.6q0-0.7-0.2-1.3-0.2-0.6-0.6-1-0.4-0.5-1-0.7-0.5-0.3-1.3-0.3z"/>
		<path class="s0" d="m206.9 30.3h-3.8v-20.4h3.8z"/>
		<path class="s0" d="m225.9 9.9v3.1h-6.2v17.3h-3.7v-17.3h-6.2v-3.1c0 0 16.1 0 16.1 0z"/>
		<path class="s0" d="m81.4 45.6q-0.1 0.3-0.3 0.5-0.2 0.1-0.5 0.1-0.3 0-0.6-0.2-0.4-0.2-0.9-0.5-0.5-0.3-1.1-0.5-0.6-0.2-1.5-0.2-0.8 0-1.4 0.2-0.6 0.2-1 0.5-0.4 0.3-0.6 0.8-0.2 0.5-0.2 1.1 0 0.7 0.4 1.2 0.4 0.4 1.1 0.8 0.6 0.3 1.5 0.6 0.8 0.2 1.7 0.5 0.9 0.4 1.8 0.8 0.8 0.4 1.5 1 0.6 0.6 1 1.5 0.4 0.9 0.4 2.1 0 1.4-0.4 2.6-0.5 1.2-1.4 2.1-0.9 0.9-2.2 1.4-1.4 0.5-3 0.5-1 0.1-2-0.1-0.9-0.2-1.8-0.6-0.8-0.3-1.6-0.8-0.7-0.5-1.3-1.1l1.1-1.9q0.1-0.1 0.3-0.3 0.2-0.1 0.5-0.1 0.4 0 0.8 0.3 0.4 0.3 0.9 0.6 0.6 0.4 1.3 0.7 0.8 0.2 1.9 0.3 1.6-0.1 2.5-0.8 0.8-0.8 0.9-2.2 0-0.8-0.4-1.3-0.5-0.5-1.1-0.9-0.7-0.3-1.5-0.6-0.9-0.2-1.7-0.5-0.9-0.3-1.8-0.7-0.8-0.4-1.5-1-0.6-0.6-1-1.6-0.4-0.9-0.4-2.3 0-1.2 0.4-2.2 0.5-1.1 1.3-1.9 0.9-0.8 2.1-1.3 1.2-0.5 2.8-0.5 1.8 0 3.4 0.6 1.5 0.5 2.6 1.6l-1 1.7z"/>
		<path class="s0" d="m91.6 47.6q1.6 0 3 0.5 1.3 0.6 2.2 1.5 0.9 1 1.4 2.4 0.6 1.3 0.6 3 0 1.8-0.6 3.1-0.5 1.4-1.4 2.4-0.9 1-2.2 1.5-1.4 0.5-3 0.5-1.6 0-2.9-0.5-1.4-0.5-2.3-1.5-0.9-1-1.4-2.4-0.6-1.3-0.6-3.1 0-1.7 0.6-3 0.5-1.4 1.4-2.4 0.9-0.9 2.3-1.5 1.3-0.5 2.9-0.5zm0 12.2q1.8 0 2.7-1.2 0.9-1.2 0.9-3.5 0-2.4-0.9-3.6-0.9-1.2-2.7-1.2-1.8 0-2.7 1.2-0.9 1.2-0.9 3.6 0 2.3 0.9 3.5 0.9 1.2 2.7 1.2z"/>
		<path class="s0" d="m105.2 41.4v20.9h-3.5v-20.9z"/>
		<path class="s0" d="m112.3 47.8v9.2q0 1.4 0.6 2.1 0.6 0.7 1.9 0.7 0.9 0 1.6-0.4 0.8-0.4 1.5-1.1v-10.5h3.5v14.5h-2.1q-0.7 0-0.9-0.6l-0.2-1.2q-0.5 0.5-1 0.9-0.4 0.3-1 0.6-0.5 0.2-1.2 0.4-0.6 0.1-1.3 0.2-1.2 0-2.1-0.5-0.9-0.4-1.5-1.1-0.6-0.7-1-1.7-0.3-1-0.3-2.2v-9.2h3.5z"/>
		<path class="s0" d="m129.9 62.5q-1.9 0-2.9-1-1-1.1-1-3v-8h-1.5q-0.3 0-0.5-0.2-0.2-0.2-0.2-0.6v-1.4l2.4-0.3 0.7-4q0-0.3 0.2-0.4 0.2-0.2 0.5-0.2h1.8v4.6h3.9v2.4h-3.9v7.9q0 0.7 0.4 1 0.3 0.4 0.9 0.4 0.3 0 0.5-0.1 0.2 0 0.4-0.1 0.2-0.1 0.3-0.2 0.1-0.1 0.2-0.1 0.2 0 0.3 0.1 0.1 0.1 0.2 0.3l1 1.6q-0.7 0.7-1.7 1-1 0.3-2 0.3z"/>
		<path class="s0" d="m140.3 43.6q0 0.5-0.2 0.9-0.2 0.4-0.5 0.7-0.3 0.3-0.7 0.4-0.4 0.2-0.9 0.2-0.4 0-0.8-0.2-0.4-0.1-0.7-0.4-0.3-0.3-0.5-0.7-0.2-0.4-0.2-0.9 0-0.4 0.2-0.9 0.2-0.4 0.5-0.7 0.3-0.3 0.7-0.4 0.4-0.2 0.8-0.2 0.5 0 0.9 0.2 0.4 0.1 0.7 0.4 0.3 0.3 0.5 0.7 0.2 0.4 0.2 0.9zm-0.5 4.2v14.5h-3.5v-14.5z"/>
		<path class="s0" d="m149.9 47.6q1.6 0 2.9 0.5 1.3 0.6 2.3 1.5 0.9 1 1.4 2.4 0.5 1.3 0.5 3 0 1.8-0.5 3.1-0.5 1.4-1.4 2.4-1 1-2.3 1.5-1.3 0.5-2.9 0.5-1.6 0-3-0.5-1.3-0.5-2.2-1.5-1-1-1.5-2.4-0.5-1.3-0.5-3.1 0-1.7 0.5-3 0.5-1.4 1.5-2.4 0.9-0.9 2.2-1.5 1.4-0.5 3-0.5zm0 12.2q1.8 0 2.6-1.2 0.9-1.2 0.9-3.5 0-2.4-0.9-3.6-0.8-1.2-2.6-1.2-1.8 0-2.7 1.2-0.9 1.2-0.9 3.6 0 2.3 0.9 3.5 0.8 1.2 2.7 1.2z"/>
		<path class="s0" d="m159.7 62.3v-14.5h2.2q0.6 0 0.9 0.7l0.2 1.1q0.4-0.4 0.9-0.8 0.5-0.4 1-0.6 0.6-0.3 1.2-0.4 0.6-0.2 1.4-0.2 1.1 0 2.1 0.4 0.9 0.4 1.5 1.1 0.6 0.8 0.9 1.8 0.3 1 0.3 2.2v9.2h-3.4v-9.2q0-1.3-0.7-2.1-0.6-0.7-1.8-0.7-0.9 0-1.7 0.4-0.8 0.4-1.5 1.1v10.5h-3.5z"/>
		<path class="s0" d="m184.4 50.7q-0.2 0.2-0.3 0.3-0.2 0.1-0.4 0.1-0.3 0-0.6-0.2-0.3-0.1-0.6-0.3-0.4-0.2-0.9-0.3-0.5-0.2-1.2-0.1-1 0-1.6 0.4-0.6 0.4-0.6 1.1 0 0.5 0.3 0.8 0.3 0.3 0.8 0.6 0.5 0.2 1.2 0.4 0.6 0.2 1.3 0.4 0.6 0.2 1.3 0.5 0.6 0.3 1.1 0.8 0.5 0.4 0.8 1 0.3 0.6 0.3 1.5 0 1.1-0.4 2-0.4 0.8-1.1 1.5-0.7 0.6-1.8 1-1.1 0.3-2.5 0.3-0.8 0-1.5-0.1-0.7-0.1-1.3-0.4-0.7-0.2-1.2-0.5-0.6-0.4-1-0.7l0.8-1.4q0.1-0.2 0.4-0.3 0.2-0.2 0.5-0.2 0.3 0 0.6 0.2 0.3 0.2 0.7 0.4 0.3 0.2 0.9 0.4 0.5 0.2 1.3 0.2 0.6 0 1-0.2 0.5-0.1 0.8-0.4 0.2-0.2 0.4-0.5 0.1-0.3 0.1-0.7 0-0.5-0.3-0.8-0.3-0.3-0.8-0.6-0.5-0.2-1.1-0.4-0.7-0.2-1.3-0.4-0.7-0.2-1.4-0.5-0.6-0.4-1.1-0.8-0.5-0.5-0.8-1.2-0.3-0.6-0.3-1.6 0-0.9 0.3-1.7 0.4-0.8 1.1-1.4 0.7-0.6 1.7-0.9 1-0.4 2.4-0.4 1.5 0 2.7 0.5 1.2 0.5 2 1.3l-0.8 1.2z"/>
	</g>
</svg>